<svg xmlns="http://www.w3.org/2000/svg" viewBox="0 0 1311 515"><defs><style>.cls-1{fill:#fc0;}.cls-2{font-size:85px;font-family:D-DIN-Bold, D-DIN;font-weight:700;}.cls-2,.cls-6,.cls-7{fill:#423f3f;}.cls-3{letter-spacing:-0.02em;}.cls-4{letter-spacing:-0.05em;}.cls-5{letter-spacing:-0.06em;}.cls-6{font-size:50px;font-family:D-DIN, D-DIN;}</style></defs><title>innovationcenter</title><g id="Layer_1" data-name="Layer 1"><rect class="cls-1" x="0.5" y="0.5" width="1310" height="514"/><path d="M1296-14V499H-13V-14H1296m1-1H-14V500H1297V-15Z" transform="translate(14 15)"/></g><g id="Layer_2" data-name="Layer 2"><text class="cls-2" transform="translate(448.1 399.59)">INN<tspan class="cls-3" x="129.96" y="0">O</tspan><tspan class="cls-4" x="178.84" y="0">V</tspan><tspan class="cls-5" x="221.25" y="0">A</tspan><tspan x="267.49" y="0">TIVE</tspan></text></g><g id="Layer_3" data-name="Layer 3"><text class="cls-6" transform="translate(448.1 450.58)">STUDENT PROJECTS</text></g><g id="Layer_4" data-name="Layer 4"><path class="cls-7" d="M588.61,184.81s44.16-36.14,102,0c0,0-9.64-152.58-51.39-153.38S588.61,184.81,588.61,184.81Z" transform="translate(14 15)"/></g><g id="Layer_5" data-name="Layer 5"><path class="cls-7" d="M588.61,191.23s45-36.13,102,0v36.14s-49.79-25.7-102,0Z" transform="translate(14 15)"/></g><g id="Layer_6" data-name="Layer 6"><path class="cls-7" d="M584.59,174.37a59.9,59.9,0,0,1-38.54,19.27l-12,32.93h50.59Z" transform="translate(14 15)"/><path class="cls-7" d="M695.41,174.37A59.9,59.9,0,0,0,734,193.64l12,32.93H695.41Z" transform="translate(14 15)"/></g><g id="Layer_7" data-name="Layer 7"><path class="cls-7" d="M601.09,232.37s-16.21,51.09,42.72,66.73c0,0,46.42-17.2,33.16-66.73Z" transform="translate(14 15)"/><path class="cls-1" d="M620.52,249.05s-8.07,25.42,21.26,33.21c0,0,23.09-8.56,16.49-33.21Z" transform="translate(14 15)"/><path class="cls-7" d="M596.33,227.37l84-.8S640.67,208.74,596.33,227.37Z" transform="translate(14 15)"/></g></svg>